<?xml version="1.0" standalone="no"?>
<!DOCTYPE svg PUBLIC "-//W3C//DTD SVG 20010904//EN"
 "http://www.w3.org/TR/2001/REC-SVG-20010904/DTD/svg10.dtd">
<svg version="1.0" xmlns="http://www.w3.org/2000/svg"
 width="128.000000pt" height="128.000000pt" viewBox="0 0 128.000000 128.000000"
 preserveAspectRatio="xMidYMid meet">
<metadata>
Created by potrace 1.14, written by Peter Selinger 2001-2017
</metadata>
<g transform="translate(0.000000,128.000000) scale(0.100000,-0.100000)"
fill="#000000" stroke="none">
<path d="M575 1023 c-94 -50 -112 -166 -38 -238 37 -36 105 -55 140 -40 10 5
21 8 24 7 4 -1 21 12 39 28 19 17 29 30 24 30 -5 0 -2 5 6 10 9 6 15 28 16 61
2 41 -3 61 -23 90 -41 62 -126 85 -188 52z"/>
<path d="M257 722 c-15 -16 -17 -43 -17 -198 0 -129 4 -185 13 -197 8 -12 39
-20 104 -27 51 -6 127 -21 170 -35 42 -14 77 -24 78 -23 1 2 8 14 15 27 l12
23 28 -27 c27 -26 28 -26 65 -11 46 19 62 23 190 42 66 10 104 21 113 32 8 11
12 68 12 198 0 219 -1 220 -91 210 -31 -4 -65 -8 -76 -10 -10 -2 -36 -7 -58
-11 -52 -9 -138 -45 -148 -62 -11 -19 -44 -16 -56 5 -6 9 -11 13 -11 8 0 -5
-8 -2 -18 6 -15 13 -43 23 -119 43 -37 10 -65 14 -128 20 -51 5 -63 3 -78 -13z"/>
</g>
</svg>
